# xmcd
#
# Track frame offsets:
#	150
#	12595
#	23130
#	35068
#	46837
#	58642
#	72361
#	87277
#	100416
#	114813
#	128877
#	146585
#	160065
#	176805
#	191658
#	212559
#	225815
#	239647
#	259190
#	273642
#
# Disc length: 3783 seconds
#
# Revision: 1
# Processed by: cddbd v1.5.2PL0 Copyright (c) Steve Scherf et al.
# Submitted via: audiograbber 1.83.01
#
DISCID=1c0ec514
DTITLE=Glen Campbell - By The Time I get To Phoenix
DYEAR=1900
DGENRE=Country
TTITLE0=By The Time I get To Phoenix
TTITLE1=Time In A Bottle
TTITLE2=The Impossible Dream
TTITLE3=Blue Sky Shining
TTITLE4=You Dont Have To Say You Love Me
TTITLE5=Make It Easy On Yourself
TTITLE6=Only Love Can Break A Heart
TTITLE7=Pretend
TTITLE8=Learning The Blues
TTITLE9=Didn't We
TTITLE10=Colleen
TTITLE11=Rhinestone Cowboy
TTITLE12=Feelings
TTITLE13=All The Way
TTITLE14=Bridge Over Troubled Water
TTITLE15=Young At Heart
TTITLE16=Without You
TTITLE17=You've lost That Lovin Feeling
TTITLE18=And I Love You So
TTITLE19=What A Wonderfull World
EXTD=
EXTT0=
EXTT1=
EXTT2=
EXTT3=
EXTT4=
EXTT5=
EXTT6=
EXTT7=
EXTT8=
EXTT9=
EXTT10=
EXTT11=
EXTT12=
EXTT13=
EXTT14=
EXTT15=
EXTT16=
EXTT17=
EXTT18=
EXTT19=
PLAYORDER=
